<?xml version="1.0" encoding="UTF-8"?>
<svg viewBox="0 0 2062 2126" xmlns="http://www.w3.org/2000/svg">
 <path d="m0 0v581c2.7575-6.57 1.5856-16.81 2.0895-24l5.3349-44c7.0616-45.53 18.904-91.55 37.004-134 68.022-159.53 197.36-288.05 361.57-346.69 47.66-17.022 101.04-31.31 152-31.31-12.41-5.206-34.48-1-48-1h-510z" fill="#fff"/>
 <path d="m890 2126c3.52-4.6 3.68-12.4 4.8-18l8.57-40c10.95-44.3 24.11-88.6 41.08-131 50.86-127.2 124.25-241.8 217.65-342 187.5-201.3 439.8-325.6 637.9-515 124.4-118.93 228.7-267.52 255.6-441 9.6-62.21 8.8-125.25-3.6-187-11.3-56.34-32.3-111.68-61.8-161-33.9-56.57-75.9-107.84-127.2-149.54-198.8-161.56-489-166.7-703-32.51-57.8 36.27-115.2 83.26-154 140.05-17.82-42.79-48.48-81.48-81-114-148.32-148.32-375.21-168.72-562-86.138-209.21 92.498-357.36 307.54-362.99 537.14-1.3368 54.76 1.8606 109.01 11.24 163 62.097 357.4 342.7 616 562.33 884 82.58 100.8 161.54 207.2 227 320 22.81 39.3 43.86 79.4 64.17 120l25.25 53z" fill="#010101"/>
 <path d="m622 0l18 2.169 37 4.9621c27.13 3.9009 54.17 12.246 80 21.213 79.78 27.703 151.82 81.236 203.58 147.66 18 23.1 30.8 47.94 45.42 73l28.2-34c16.2-17.99 33.6-34.74 51.8-50.71 86.7-75.881 195.8-124.87 309-143.86 153.7-25.771 320.1 12.415 446 104.73 84.3 61.82 150.3 149.23 187.4 246.84 18 47.13 32.6 100.22 32.6 151 5-11.93 1-33.01 1-46v-477h-1440m267 2115l3.28-21 6.52-39c8.72-43.6 19.07-86.7 32.87-129 49.55-152 135.73-290.5 251.33-401 199.4-190.7 455.9-313.9 644.1-517 110.6-119.32 199.6-268.61 206.9-435 2.1-49.46-4.1-98.1-16.1-146-11-43.68-29.1-86.22-51.9-125-25.4-43.32-56.1-84.57-93-118.91-151.5-141.15-378-186.29-574-122.42-79.8 25.995-153.5 66.36-218 120.08-19.7 16.4-37.9 34.14-56 52.25-3.8 3.76-13.2 17.71-18.9 17.11-5.2-0.53-10.79-13.15-13.43-17.11-11.78-17.67-24.15-34.83-37.94-51-42.32-49.63-95.21-92.36-154.73-119.69-37.71-17.316-77.18-29.523-118-36.886-258.64-46.648-523.21 127.41-614.58 367.58-91.832 241.42-10.02 499.46 121.16 709 149.7 239.1 364.51 428.3 525.7 659 34.38 49.2 63.02 103.5 89.97 157 31.98 63.5 62.67 129.2 84.75 197m1172-1532c0 33.04-6.5 66.92-14.1 99-18 75.73-50.1 147.65-92.2 213-136.5 211.9-355 346.4-553.7 492.9-174.3 128.5-336 281.3-427.69 481.1-26.62 58-48.49 117.4-65.16 179l-17.15 78h1171v-1504c0-11.16 3.3-28.73-1-39m-2061 70v1473h890c-47.77-116.4-117.15-226.3-190.58-328-56.82-78.7-115.67-155.1-178.69-229-119.67-140.3-245.27-276.1-346.39-431-62.38-95.6-116.32-201.18-145.46-312-10.127-38.53-18.67-77.42-23.595-117l-3.9995-42-1.2855-14z" fill="#fff"/>
</svg>
